<svg xmlns="http://www.w3.org/2000/svg" viewBox="0 0 26 26"><defs><style>.cls-1{fill:#2ca9be;}</style></defs><title>inicon</title><g id="Layer_2" data-name="Layer 2"><g id="Layer_1-2" data-name="Layer 1"><path class="cls-1" d="M20.54,26H5.46A5.46,5.46,0,0,1,0,20.54V5.46A5.46,5.46,0,0,1,5.46,0H20.54A5.46,5.46,0,0,1,26,5.46V20.54A5.46,5.46,0,0,1,20.54,26ZM2.76,16.63A13.72,13.72,0,0,1,5.51,8.36a2,2,0,0,0,2.8-2.8,13.8,13.8,0,0,1,17.7,1V5.16A14.84,14.84,0,0,0,7.59,4.84a2,2,0,0,0-2.8,2.81A14.84,14.84,0,0,0,5.09,26H6.44A13.72,13.72,0,0,1,2.76,16.63Z"/></g></g></svg>