<?xml version="1.0" encoding="UTF-8" standalone="no"?>
<svg width="19px" height="17px" viewBox="0 0 19 17" version="1.1" xmlns="http://www.w3.org/2000/svg" xmlns:xlink="http://www.w3.org/1999/xlink">
    <!-- Generator: Sketch 41.2 (35397) - http://www.bohemiancoding.com/sketch -->
    <title>quote</title>
    <desc>Created with Sketch.</desc>
    <defs></defs>
    <g id="Page-1" stroke="none" stroke-width="1" fill="none" fill-rule="evenodd">
        <g id="Wireframe" transform="translate(-358.000000, -1591.000000)" fill="#2BB6C9">
            <g id="Testimonial" transform="translate(357.000000, 1577.000000)">
                <path d="M9.5703125,30.8164062 L1.07421875,30.8164062 L1.07421875,24.2734375 C1.07421875,21.8645713 1.57551582,19.9635486 2.578125,18.5703125 C3.58073418,17.1770764 5.29946699,15.9466199 7.734375,14.8789062 L9.5703125,18.3554688 C8.07290918,19.0585973 7.03776328,19.7584601 6.46484375,20.4550781 C5.89192422,21.1516962 5.57291699,21.9752557 5.5078125,22.9257812 L9.5703125,22.9257812 L9.5703125,30.8164062 Z M19.4726562,30.8164062 L10.9765625,30.8164062 L10.9765625,24.2734375 C10.9765625,21.8645713 11.4778596,19.9635486 12.4804688,18.5703125 C13.4830779,17.1770764 15.2018107,15.9466199 17.6367188,14.8789062 L19.4726562,18.3554688 C17.9752529,19.0585973 16.940107,19.7584601 16.3671875,20.4550781 C15.794268,21.1516962 15.4752607,21.9752557 15.4101562,22.9257812 L19.4726562,22.9257812 L19.4726562,30.8164062 Z" id="quote"></path>
            </g>
        </g>
    </g>
</svg>